<svg width="65" height="65" viewBox="0 0 65 65" fill="none" xmlns="http://www.w3.org/2000/svg">
<path d="M0 32.5C0 26.0721 1.90606 19.7885 5.47721 14.4438C9.04835 9.09925 14.1242 4.93364 20.0628 2.47379C26.0014 0.0139439 32.5361 -0.629479 38.8405 0.624542C45.1448 1.87856 50.9358 4.97374 55.481 9.51896C60.0262 14.0642 63.1215 19.8551 64.3755 26.1595C65.6295 32.4639 64.9859 38.9986 62.526 44.9372C60.0662 50.8758 55.9006 55.9515 50.556 59.5227C45.2114 63.0938 38.9279 65 32.5 65C23.8805 65 15.6139 61.5759 9.519 55.481C3.42407 49.3861 0 41.1195 0 32.5ZM4.0625 32.5C4.0625 38.1244 5.73035 43.6224 8.8551 48.299C11.9799 52.9755 16.4212 56.6205 21.6175 58.7728C26.8138 60.9252 32.5315 61.4883 38.0479 60.391C43.5642 59.2937 48.6313 56.5855 52.6083 52.6084C56.5854 48.6314 59.2939 43.5643 60.3911 38.048C61.4884 32.5316 60.9252 26.8137 58.7729 21.6175C56.6205 16.4212 52.9755 11.9797 48.299 8.85493C43.6224 5.73018 38.1244 4.06245 32.5 4.06245C24.965 4.08548 17.7452 7.08898 12.4171 12.4171C7.08903 17.7451 4.08554 24.965 4.0625 32.5ZM17.0625 47.7344C16.7823 47.4478 16.5989 47.0803 16.5384 46.684C16.4779 46.2877 16.5433 45.8825 16.7253 45.5253L25.8314 27.1669C26.0152 26.8074 26.3077 26.515 26.6672 26.3311L46.546 17.7855C46.9111 17.6 47.3261 17.5364 47.7299 17.6043C48.1337 17.6722 48.505 17.868 48.7893 18.1627C49.0736 18.4574 49.2558 18.8355 49.309 19.2415C49.3623 19.6476 49.2838 20.06 49.0851 20.4181L39.5068 39.263C39.3169 39.6081 39.0239 39.8854 38.6689 40.0562L19.2613 48.1152C18.9006 48.2888 18.4947 48.3454 18.1002 48.2769C17.7058 48.2084 17.3426 48.0184 17.0614 47.7334L17.0625 47.7344ZM22.7205 42.195L33.8223 37.898L28.2435 30.9155L22.7205 42.195ZM37.119 35.5173L42.705 24.0348L31.4824 28.4628L37.119 35.5173Z" fill="#FF3D00"/>
</svg>
