<svg width="65" height="66" viewBox="0 0 65 66" fill="none" xmlns="http://www.w3.org/2000/svg">
<path d="M33.054 65.9332C32.8632 65.9366 32.6717 65.9384 32.4795 65.9384C23.8654 65.9384 15.604 62.5145 9.51291 56.4199C3.4218 50.3252 -0.00012207 42.0591 -0.00012207 33.4399C-0.00012207 24.8208 3.4218 16.5546 9.51291 10.46C15.604 4.36532 23.8654 0.941406 32.4795 0.941406C32.671 0.941406 32.8625 0.941406 33.054 0.941406C33.1589 0.941406 33.2634 0.941406 33.3676 0.941406C33.7233 0.941374 34.0788 0.960581 34.4324 0.999177C42.7012 1.48709 50.4711 5.11752 56.1532 11.148C61.8352 17.1785 64.9999 25.1535 64.9999 33.4414C64.9999 41.7294 61.8352 49.704 56.1532 55.7345C50.4711 61.765 42.7012 65.3955 34.4324 65.8834C34.0788 65.922 33.7233 65.9414 33.3676 65.9414C33.2634 65.9394 33.1589 65.9366 33.054 65.9332ZM34.4395 61.615C39.0871 60.2704 43.1105 54.1525 45.1801 45.8877C42.1869 45.6572 38.6253 45.4887 34.4395 45.4481V61.615ZM30.3897 61.556V45.4501C26.2465 45.4917 22.6758 45.6531 19.643 45.8775C21.747 54.0306 25.7958 60.0997 30.3897 61.556ZM22.7519 60.1851C19.3976 56.1129 16.9923 51.3439 15.7109 46.2249C13.013 46.4864 10.3305 46.8878 7.67424 47.4274C11.0297 53.3337 16.3735 57.8559 22.7519 60.1851ZM43.8078 59.5474C49.4259 57.1018 54.1127 52.9187 57.1803 47.6121C54.6024 47.0002 51.9873 46.5573 49.3517 46.2859C48.3947 51.0283 46.5106 55.5346 43.8078 59.5462V59.5474ZM58.9757 43.9074C61.7095 37.0029 61.6327 29.3018 58.7616 22.4533L59.536 24.6337C56.531 25.5251 53.4449 26.1155 50.3231 26.3958C50.5876 28.7352 50.719 31.0876 50.7168 33.4419C50.7211 36.4035 50.5108 39.3616 50.0875 42.2928C53.089 42.5903 56.0617 43.1289 58.9769 43.9034L58.9757 43.9074ZM3.98673 33.4469C3.98315 36.9486 4.62988 40.4206 5.89392 43.686C8.83557 43.019 11.8164 42.539 14.8187 42.2489C13.8998 37.0279 13.8032 31.6952 14.5325 26.4444C11.4218 26.1527 8.3367 25.6327 5.30217 24.8886C4.42832 27.6543 3.98464 30.5383 3.98673 33.4389V33.4469ZM45.9981 41.8965C46.7902 36.9044 46.8773 31.8256 46.2569 26.8092C43.009 27.0773 39.0912 27.2743 34.4395 27.3169V41.4091C38.9694 41.4426 42.7999 41.6304 46.0002 41.8894L45.9981 41.8965ZM18.1093 33.4469C18.1072 36.2735 18.3377 39.0956 18.7985 41.8844C22.0363 41.6366 25.8862 41.4537 30.3897 41.4101V27.316C25.7613 27.2713 21.8242 27.0793 18.5316 26.8213C18.25 29.0159 18.109 31.2263 18.1093 33.4389V33.4469ZM34.4385 23.2707C38.8273 23.2291 42.5228 23.0494 45.5932 22.8046C43.683 13.6339 39.419 6.71186 34.4385 5.27076V23.2707ZM30.3887 23.2707V5.33076C25.4619 6.89373 21.1634 13.76 19.2166 22.8108C22.3377 23.0403 26.0516 23.2181 30.3897 23.2618L30.3887 23.2707ZM15.2653 22.4483C16.4545 16.6737 19.0228 11.2727 22.7509 6.70685C15.7739 9.25555 10.0599 14.4173 6.81549 21.1025C9.60223 21.7214 12.4246 22.1676 15.2663 22.4381L15.2653 22.4483ZM49.7222 22.4015C52.5323 22.1335 55.3142 21.6238 58.0369 20.8781C55.035 14.8312 49.9963 10.0385 43.8088 7.34456C46.8305 11.88 48.8469 17.0102 49.7222 22.3903V22.4015Z" fill="#FF3D00"/>
</svg>
