<svg width="65" height="65" viewBox="0 0 65 65" fill="none" xmlns="http://www.w3.org/2000/svg">
<path d="M33.0541 64.9918C32.8633 64.9952 32.6718 64.997 32.4796 64.997C23.8655 64.997 15.6041 61.5731 9.51303 55.4785C3.42193 49.3838 0 41.1177 0 32.4985C0 23.8794 3.42193 15.6132 9.51303 9.51857C15.6041 3.42392 23.8655 4.06575e-08 32.4796 4.06575e-08C32.6711 4.06575e-08 32.8626 4.06575e-08 33.0541 4.06575e-08C33.159 4.06575e-08 33.2635 4.06575e-08 33.3677 4.06575e-08C33.7234 -3.22547e-05 34.0789 0.0191752 34.4325 0.057771C42.7013 0.545687 50.4713 4.17611 56.1533 10.2066C61.8353 16.2371 65 24.2121 65 32.5C65 40.7879 61.8353 48.7626 56.1533 54.7931C50.4713 60.8236 42.7013 64.4541 34.4325 64.942C34.0789 64.9806 33.7234 65 33.3677 65C33.2635 64.998 33.159 64.9952 33.0541 64.9918ZM34.4396 60.6736C39.0872 59.329 43.1107 53.2111 45.1802 44.9463C42.187 44.7158 38.6254 44.5473 34.4396 44.5067V60.6736ZM30.3898 60.6146V44.5087C26.2466 44.5503 22.6759 44.7117 19.6431 44.9361C21.7472 53.0892 25.796 59.1583 30.3898 60.6146ZM22.752 59.2437C19.3977 55.1715 16.9924 50.4024 15.711 45.2835C13.0131 45.545 10.3307 45.9464 7.67436 46.486C11.0299 52.3923 16.3736 56.9145 22.752 59.2437ZM43.8079 58.606C49.426 56.1604 54.1128 51.9773 57.1804 46.6707C54.6025 46.0588 51.9874 45.6159 49.3518 45.3445C48.3948 50.0869 46.5108 54.5932 43.8079 58.6048V58.606ZM58.9759 42.966C61.7096 36.0615 61.6328 28.3604 58.7618 21.5119L59.5361 23.6923C56.5311 24.5837 53.445 25.1741 50.3232 25.4544C50.5877 27.7938 50.7191 30.1462 50.7169 32.5005C50.7213 35.4621 50.511 38.4202 50.0877 41.3514C53.0891 41.6489 56.0618 42.1875 58.977 42.962L58.9759 42.966ZM3.98685 32.5055C3.98328 36.0072 4.63 39.4792 5.89404 42.7445C8.83569 42.0776 11.8165 41.5976 14.8188 41.3075C13.8999 36.0865 13.8033 30.7538 14.5326 25.503C11.4219 25.2113 8.33682 24.6913 5.3023 23.9472C4.42844 26.7129 3.98476 29.5969 3.98685 32.4975V32.5055ZM45.9982 40.9551C46.7903 35.963 46.8775 30.8842 46.257 25.8677C43.0091 26.1359 39.0913 26.3329 34.4396 26.3755V40.4677C38.9695 40.5012 42.8001 40.689 46.0003 40.9479L45.9982 40.9551ZM18.1095 32.5055C18.1073 35.3321 18.3378 38.1542 18.7986 40.943C22.0364 40.6952 25.8863 40.5123 30.3898 40.4687V26.3745C25.7615 26.3299 21.8243 26.1379 18.5317 25.8799C18.2502 28.0745 18.1091 30.2849 18.1095 32.4975V32.5055ZM34.4386 22.3293C38.8274 22.2877 42.523 22.108 45.5933 21.8632C43.6831 12.6925 39.4191 5.77046 34.4386 4.32935V22.3293ZM30.3888 22.3293V4.38935C25.4621 5.95233 21.1635 12.8186 19.2168 21.8694C22.3378 22.0989 26.0517 22.2767 30.3898 22.3204L30.3888 22.3293ZM15.2655 21.5069C16.4546 15.7322 19.0229 10.3313 22.751 5.76544C15.7741 8.31414 10.06 13.4759 6.81561 20.1611C9.60235 20.78 12.4247 21.2262 15.2665 21.4967L15.2655 21.5069ZM49.7223 21.46C52.5324 21.1921 55.3143 20.6824 58.0371 19.9367C55.0351 13.8898 49.9964 9.09712 43.8089 6.40315C46.8307 10.9386 48.847 16.0688 49.7223 21.4489V21.46Z" fill="#FF3D00"/>
</svg>
