<svg width="52" height="64" viewBox="0 0 52 64" fill="none" xmlns="http://www.w3.org/2000/svg">
<path d="M16.2134 63.9931C15.9417 64.0104 15.6693 63.9715 15.413 63.879C15.1568 63.7864 14.9222 63.642 14.7236 63.4548C14.5251 63.2676 14.3668 63.0417 14.2587 62.7907C14.1505 62.5398 14.0947 62.269 14.0947 61.9955C14.0947 61.722 14.1505 61.4514 14.2587 61.2004C14.3668 60.9494 14.5251 60.7233 14.7236 60.5361C14.9222 60.3489 15.1568 60.2048 15.413 60.1122C15.6693 60.0197 15.9417 59.9808 16.2134 59.9981H22.0005V56.0581H21.9647C18.1166 56.0656 14.3034 55.3255 10.7352 53.8785C10.2571 53.6715 9.87859 53.2846 9.6808 52.8008C9.48301 52.317 9.48162 51.7745 9.67694 51.2897C9.87226 50.8049 10.2488 50.4161 10.7259 50.2066C11.203 49.9971 11.7428 49.9835 12.2298 50.1687C15.3233 51.4221 18.629 52.0627 21.9647 52.0551C37.0581 52.0551 48.0144 41.0528 48.0144 25.8934C48.0021 21.3898 46.8074 16.9691 44.5506 13.0774C42.2939 9.18569 39.055 5.96073 35.1609 3.72784C34.9353 3.59458 34.7379 3.41801 34.5802 3.20817C34.4225 2.99832 34.3075 2.75924 34.2418 2.50476C34.1761 2.25027 34.1609 1.98526 34.1971 1.72488C34.2333 1.4645 34.3203 1.2139 34.453 0.987261C34.5856 0.760627 34.7615 0.562446 34.9704 0.40406C35.1793 0.245673 35.4173 0.130231 35.6707 0.064205C35.924 -0.0018206 36.1879 -0.0171379 36.4471 0.0192494C36.7064 0.0556366 36.9559 0.143018 37.1816 0.276278C41.6767 2.86038 45.4137 6.58955 48.0154 11.0876C50.6172 15.5857 51.9916 20.6934 52 25.8954C52 42.0075 41.2658 54.0466 25.9572 55.8319V60.0011H31.9595C32.2312 59.9838 32.5037 60.0226 32.7599 60.1152C33.0161 60.2077 33.2508 60.3521 33.4493 60.5393C33.6479 60.7265 33.8061 60.9524 33.9143 61.2034C34.0224 61.4544 34.0782 61.7251 34.0782 61.9986C34.0782 62.2721 34.0224 62.5427 33.9143 62.7937C33.8061 63.0447 33.6479 63.2708 33.4493 63.458C33.2508 63.6452 33.0161 63.7893 32.7599 63.8819C32.5037 63.9745 32.2312 64.0133 31.9595 63.996L16.2134 63.9931ZM8.69783e-05 26.0715C-0.0121385 21.7089 1.26469 17.4408 3.66895 13.8074C6.0732 10.1741 9.49677 7.33898 13.5062 5.66094C17.5156 3.98289 21.9307 3.53743 26.1923 4.38092C30.454 5.22442 34.3706 7.31896 37.4464 10.3994C40.5222 13.4798 42.6188 17.4076 43.4709 21.6854C44.3229 25.9633 43.892 30.3988 42.2327 34.4306C40.5735 38.4623 37.7605 41.9089 34.1498 44.334C30.5392 46.7592 26.2933 48.0539 21.9497 48.0541C16.1438 48.0412 10.5783 45.7237 6.46669 41.6066C2.35503 37.4896 0.0305778 31.9069 8.69783e-05 26.0757V26.0715ZM3.98567 26.0715C3.99729 29.6372 5.06064 33.1197 7.04145 36.0788C9.02226 39.0379 11.8317 41.341 15.1149 42.6975C18.3982 44.054 22.0081 44.4029 25.4886 43.7002C28.9692 42.9975 32.1644 41.2746 34.6708 38.7493C37.1771 36.2239 38.8822 33.0091 39.5707 29.5111C40.2591 26.0131 39.9001 22.3888 38.539 19.0956C37.1778 15.8023 34.8756 12.9879 31.923 11.008C28.9704 9.02802 25.4999 7.97124 21.9497 7.97102C19.5842 7.9665 17.2411 8.43218 15.0555 9.34119C12.87 10.2502 10.8851 11.5846 9.21529 13.2675C7.54547 14.9504 6.2237 16.9484 5.32616 19.1466C4.42862 21.3449 3.97305 23.6998 3.98567 26.0757V26.0715Z" fill="#FF3D00"/>
</svg>
