<svg width="55" height="42" viewBox="0 0 55 42" fill="none" xmlns="http://www.w3.org/2000/svg">
<path d="M16.5483 9.52059C16.3129 9.75596 15.9937 9.88819 15.6608 9.88819C15.3279 9.88819 15.0087 9.75596 14.7733 9.52059C14.538 9.28522 14.4057 8.966 14.4057 8.63314C14.4057 8.30028 14.538 7.98105 14.7733 7.74568C15.0087 7.51032 15.3279 7.37809 15.6608 7.37809C15.9937 7.37809 16.3129 7.51032 16.5483 7.74568C16.7836 7.98105 16.9158 8.30028 16.9158 8.63314C16.9158 8.966 16.7836 9.28522 16.5483 9.52059ZM10.0864 8.63314C10.0864 8.966 9.9542 9.28522 9.71883 9.52059C9.48346 9.75596 9.16424 9.88819 8.83138 9.88819C8.49852 9.88819 8.17929 9.75596 7.94392 9.52059C7.70856 9.28522 7.57633 8.966 7.57633 8.63314C7.57633 8.30028 7.70856 7.98105 7.94392 7.74568C8.17929 7.51032 8.49852 7.37809 8.83138 7.37809C9.16424 7.37809 9.48346 7.51032 9.71883 7.74568C9.9542 7.98105 10.0864 8.30028 10.0864 8.63314Z" fill="#B4B4B4" stroke="black" stroke-width="0.904611"/>
<path d="M29.3209 16.7189H28.8686V17.1712V27.4153V27.8676H29.3209C30.5594 27.8676 31.7472 28.3596 32.623 29.2354C33.4987 30.1111 33.9907 31.2989 33.9907 32.5374V32.9897H34.443H53.2239C53.5568 32.9897 53.876 33.1219 54.1114 33.3573C54.3467 33.5927 54.479 33.9119 54.479 34.2448C54.479 34.5776 54.3467 34.8968 54.1114 35.1322C53.876 35.3676 53.5568 35.4998 53.2239 35.4998H34.443H33.9907V35.9521C33.9907 37.1906 33.4987 38.3784 32.623 39.2541C31.7472 40.1299 30.5594 40.6219 29.3209 40.6219H25.9062C24.6677 40.6219 23.48 40.1299 22.6042 39.2541C21.7285 38.3784 21.2365 37.1906 21.2365 35.9521V35.4998H20.7842H2.00325C1.6704 35.4998 1.35117 35.3676 1.1158 35.1322C0.880432 34.8968 0.748204 34.5776 0.748204 34.2448C0.748204 33.9119 0.880432 33.5927 1.1158 33.3573C1.35117 33.1219 1.67039 32.9897 2.00325 32.9897H20.7842H21.2365V32.5374C21.2365 31.2989 21.7285 30.1111 22.6042 29.2354C23.48 28.3596 24.6677 27.8676 25.9062 27.8676H26.3585V27.4153V17.1712V16.7189H25.9062H7.12532C5.434 16.7189 3.81196 16.047 2.61602 14.8511C1.42008 13.6551 0.748204 12.0331 0.748204 10.3418V6.92708C0.748204 5.23576 1.42008 3.61372 2.61602 2.41778C3.81196 1.22183 5.434 0.549962 7.12532 0.549962H48.1018C49.7931 0.549962 51.4152 1.22183 52.6111 2.41778C53.8071 3.61372 54.479 5.23576 54.479 6.92708V10.3418C54.479 12.0331 53.8071 13.6551 52.6111 14.8511C51.4152 16.047 49.7931 16.7189 48.1018 16.7189H29.3209ZM3.2583 6.92708V10.3418C3.2583 11.3674 3.66572 12.351 4.39092 13.0762C5.11613 13.8014 6.09972 14.2088 7.12532 14.2088H48.1018C49.1274 14.2088 50.111 13.8014 50.8362 13.0762C51.5614 12.351 51.9688 11.3674 51.9688 10.3418V6.92708C51.9688 5.90148 51.5614 4.91789 50.8362 4.19268C50.111 3.46748 49.1274 3.06006 48.1018 3.06006H7.12532C6.09972 3.06006 5.11613 3.46748 4.39092 4.19268C3.66572 4.91789 3.2583 5.90148 3.2583 6.92708ZM23.7466 35.9521C23.7466 36.5249 23.9741 37.0742 24.3791 37.4792C24.7841 37.8842 25.3334 38.1118 25.9062 38.1118H29.3209C29.8937 38.1118 30.443 37.8842 30.848 37.4792C31.2531 37.0742 31.4806 36.5249 31.4806 35.9521V32.5374C31.4806 31.9646 31.2531 31.4153 30.848 31.0103C30.443 30.6053 29.8937 30.3777 29.3209 30.3777H25.9062C25.3334 30.3777 24.7841 30.6053 24.3791 31.0103C23.9741 31.4153 23.7466 31.9646 23.7466 32.5374V35.9521Z" fill="#B4B4B4" stroke="black" stroke-width="0.904611"/>
</svg>
