<svg width="45" height="52" viewBox="0 0 45 52" fill="none" xmlns="http://www.w3.org/2000/svg">
<mask id="path-1-outside-1_429_1040" maskUnits="userSpaceOnUse" x="-0.619141" y="-0.224609" width="46" height="52" fill="black">
<rect fill="white" x="-0.619141" y="-0.224609" width="46" height="52"/>
<path d="M44.3112 20.942C44.4393 20.8687 44.5177 20.7325 44.5177 20.5848V13.6662C44.5177 13.5186 44.4393 13.3823 44.3112 13.3091L38.3197 9.84974C38.1917 9.77645 38.0347 9.77645 37.9067 9.84974L32.1216 13.1903L28.8946 11.327V4.64685C28.8946 4.49923 28.8161 4.36296 28.6881 4.28967L22.6965 0.830362C22.5685 0.757067 22.4116 0.757067 22.2836 0.830362L16.292 4.28967C16.164 4.36296 16.0855 4.49923 16.0855 4.64685V11.327L12.8585 13.1903L7.07339 9.84974C6.94538 9.77645 6.78847 9.77645 6.66046 9.84974L0.668878 13.3091C0.54087 13.3823 0.462414 13.5186 0.462414 13.6662V20.5848C0.462414 20.7325 0.54087 20.8687 0.668878 20.942L6.454 24.2826V28.0093L0.587323 31.3963C0.459316 31.4696 0.380859 31.6069 0.380859 31.7535V38.6721C0.380859 38.8197 0.459316 38.956 0.587323 39.0293L6.57891 42.4886C6.64291 42.5258 6.71414 42.5444 6.78537 42.5444C6.8566 42.5444 6.92783 42.5258 6.99184 42.4886L12.8585 39.1016L16.0855 40.9649V47.6451C16.0855 47.7927 16.164 47.9289 16.292 48.0022L22.2836 51.4615C22.3476 51.4987 22.4188 51.5173 22.4901 51.5173C22.5613 51.5173 22.6325 51.4987 22.6965 51.4615L28.6881 48.0022C28.8161 47.9289 28.8946 47.7916 28.8946 47.6451V40.9649L32.1216 39.1016L37.9067 42.4422C37.9707 42.4793 38.042 42.4979 38.1132 42.4979C38.1844 42.4979 38.2557 42.4793 38.3197 42.4422L44.3112 38.9829C44.4393 38.9096 44.5177 38.7723 44.5177 38.6257V31.7071C44.5177 31.5594 44.4393 31.4232 44.3112 31.3499L38.5261 28.0093V24.2826L44.3112 20.942ZM7.69072 35.1653L12.363 32.4679V37.8628L7.69072 35.1653ZM16.4964 12.0403L22.0751 15.2612V18.9878L16.4964 22.2087L13.2694 20.3453V13.9037L16.4964 12.0403ZM31.7076 13.9037V20.3453L28.4806 22.2087L22.902 18.9878V15.2612L28.4806 12.0403L31.7076 13.9037ZM17.3223 40.7264L22.0751 37.9825V43.4714L17.3223 40.7275V40.7264ZM12.7759 31.2756L7.27779 28.1012V24.2816L12.8564 21.0607L16.0835 22.9241V29.3658L12.7759 31.2756ZM12.4435 14.3796V19.8684L7.69072 17.1245L8.56922 16.6176L12.4435 14.3806V14.3796ZM22.9009 25.4285V19.9396L27.6537 22.6836L22.9009 25.4275V25.4285ZM22.0751 25.4285L21.1006 24.8659L17.3223 22.6846L22.0751 19.9407V25.4295V25.4285ZM12.0306 20.5828L7.27779 23.3267V17.8378L12.0306 20.5817V20.5828ZM11.9501 31.7515L7.27779 34.4489V29.054L11.9501 31.7515ZM16.9093 23.4L21.6621 26.1439L16.9093 28.8878V23.3989V23.4ZM22.0751 26.8593V32.3481L17.3223 29.6042L22.0751 26.8603V26.8593ZM22.9009 43.4693V37.9805L27.6537 40.7244L22.9009 43.4683V43.4693ZM22.9009 26.8593L27.6537 29.6032L22.9009 32.3471V26.8583V26.8593ZM23.3139 26.1439L28.0667 23.4V28.8888L23.3139 26.1449V26.1439ZM28.8925 22.923L32.1195 21.0597L37.6982 24.2806V28.0072L32.1195 31.2281L28.8925 29.3647V22.923ZM32.9454 31.705L37.6982 28.9611V34.4499L32.9454 31.706V31.705ZM37.6982 23.3277L32.9454 20.5838L37.6982 17.8399V23.3288V23.3277ZM32.5325 14.3796L36.4068 16.6166L37.2853 17.1235L32.5325 19.8674V14.3785V14.3796ZM22.9009 14.3073V8.81846L27.6537 11.5624L22.9009 14.3063V14.3073ZM22.0751 14.3073L17.3223 11.5634L22.0751 8.81949V14.3083V14.3073ZM13.1878 31.991L16.4954 30.0812L22.074 33.302V37.0287L16.4954 40.2495L13.1878 38.3397V31.991ZM28.4796 40.2495L22.9009 37.0287V33.302L28.4796 30.0812L31.7066 31.9445V38.3862L28.4796 40.2495ZM32.5325 32.4214L34.8314 33.749L37.2853 35.1664L32.5325 37.9103V32.4214ZM43.6908 20.3464L38.5251 23.3288V17.363L43.6908 14.3806V20.3453V20.3464ZM38.1122 10.6828L43.2779 13.6652L38.1122 16.6476L33.2881 13.8624L32.9464 13.6652L38.1122 10.6828ZM23.3139 8.10409L28.0667 5.36018V10.849L23.3139 8.10512V8.10409ZM22.488 1.66241L27.6537 4.64479L22.488 7.62716L21.1966 6.88182L17.3223 4.64479L22.488 1.66241ZM16.9093 5.36018L20.7836 7.59722L21.6621 8.10409L16.9093 10.848V5.35915V5.36018ZM6.86486 10.6828L12.0306 13.6652L11.6889 13.8624L6.86486 16.6476L5.57343 15.9022L1.69913 13.6652L6.86486 10.6828ZM1.2862 14.3806L5.1605 16.6176L6.45193 17.363V23.3288L1.2862 20.3464V14.3816V14.3806ZM6.45193 28.9621V34.5439L1.61758 31.7525L6.45193 28.9611V28.9621ZM1.20465 32.4679L6.37038 35.4503V41.416L1.20465 38.4337V32.4679ZM7.19624 41.416V35.8343L12.0306 38.6257L7.19624 41.4171V41.416ZM16.9093 41.4418L22.0751 44.4242V50.39L16.9093 47.4076V41.4418ZM28.0677 47.4076L22.902 50.39V44.4242L28.0677 41.4418V47.4076ZM37.6992 35.8818V41.3706L32.9464 38.6267L37.6992 35.8828V35.8818ZM43.6908 38.3872L38.5251 41.3696V35.4038L43.6908 32.4214V38.3872ZM43.2779 31.7071L38.5251 34.451V28.9621L43.2779 31.706V31.7071Z"/>
</mask>
<path d="M44.3112 20.942C44.4393 20.8687 44.5177 20.7325 44.5177 20.5848V13.6662C44.5177 13.5186 44.4393 13.3823 44.3112 13.3091L38.3197 9.84974C38.1917 9.77645 38.0347 9.77645 37.9067 9.84974L32.1216 13.1903L28.8946 11.327V4.64685C28.8946 4.49923 28.8161 4.36296 28.6881 4.28967L22.6965 0.830362C22.5685 0.757067 22.4116 0.757067 22.2836 0.830362L16.292 4.28967C16.164 4.36296 16.0855 4.49923 16.0855 4.64685V11.327L12.8585 13.1903L7.07339 9.84974C6.94538 9.77645 6.78847 9.77645 6.66046 9.84974L0.668878 13.3091C0.54087 13.3823 0.462414 13.5186 0.462414 13.6662V20.5848C0.462414 20.7325 0.54087 20.8687 0.668878 20.942L6.454 24.2826V28.0093L0.587323 31.3963C0.459316 31.4696 0.380859 31.6069 0.380859 31.7535V38.6721C0.380859 38.8197 0.459316 38.956 0.587323 39.0293L6.57891 42.4886C6.64291 42.5258 6.71414 42.5444 6.78537 42.5444C6.8566 42.5444 6.92783 42.5258 6.99184 42.4886L12.8585 39.1016L16.0855 40.9649V47.6451C16.0855 47.7927 16.164 47.9289 16.292 48.0022L22.2836 51.4615C22.3476 51.4987 22.4188 51.5173 22.4901 51.5173C22.5613 51.5173 22.6325 51.4987 22.6965 51.4615L28.6881 48.0022C28.8161 47.9289 28.8946 47.7916 28.8946 47.6451V40.9649L32.1216 39.1016L37.9067 42.4422C37.9707 42.4793 38.042 42.4979 38.1132 42.4979C38.1844 42.4979 38.2557 42.4793 38.3197 42.4422L44.3112 38.9829C44.4393 38.9096 44.5177 38.7723 44.5177 38.6257V31.7071C44.5177 31.5594 44.4393 31.4232 44.3112 31.3499L38.5261 28.0093V24.2826L44.3112 20.942ZM7.69072 35.1653L12.363 32.4679V37.8628L7.69072 35.1653ZM16.4964 12.0403L22.0751 15.2612V18.9878L16.4964 22.2087L13.2694 20.3453V13.9037L16.4964 12.0403ZM31.7076 13.9037V20.3453L28.4806 22.2087L22.902 18.9878V15.2612L28.4806 12.0403L31.7076 13.9037ZM17.3223 40.7264L22.0751 37.9825V43.4714L17.3223 40.7275V40.7264ZM12.7759 31.2756L7.27779 28.1012V24.2816L12.8564 21.0607L16.0835 22.9241V29.3658L12.7759 31.2756ZM12.4435 14.3796V19.8684L7.69072 17.1245L8.56922 16.6176L12.4435 14.3806V14.3796ZM22.9009 25.4285V19.9396L27.6537 22.6836L22.9009 25.4275V25.4285ZM22.0751 25.4285L21.1006 24.8659L17.3223 22.6846L22.0751 19.9407V25.4295V25.4285ZM12.0306 20.5828L7.27779 23.3267V17.8378L12.0306 20.5817V20.5828ZM11.9501 31.7515L7.27779 34.4489V29.054L11.9501 31.7515ZM16.9093 23.4L21.6621 26.1439L16.9093 28.8878V23.3989V23.4ZM22.0751 26.8593V32.3481L17.3223 29.6042L22.0751 26.8603V26.8593ZM22.9009 43.4693V37.9805L27.6537 40.7244L22.9009 43.4683V43.4693ZM22.9009 26.8593L27.6537 29.6032L22.9009 32.3471V26.8583V26.8593ZM23.3139 26.1439L28.0667 23.4V28.8888L23.3139 26.1449V26.1439ZM28.8925 22.923L32.1195 21.0597L37.6982 24.2806V28.0072L32.1195 31.2281L28.8925 29.3647V22.923ZM32.9454 31.705L37.6982 28.9611V34.4499L32.9454 31.706V31.705ZM37.6982 23.3277L32.9454 20.5838L37.6982 17.8399V23.3288V23.3277ZM32.5325 14.3796L36.4068 16.6166L37.2853 17.1235L32.5325 19.8674V14.3785V14.3796ZM22.9009 14.3073V8.81846L27.6537 11.5624L22.9009 14.3063V14.3073ZM22.0751 14.3073L17.3223 11.5634L22.0751 8.81949V14.3083V14.3073ZM13.1878 31.991L16.4954 30.0812L22.074 33.302V37.0287L16.4954 40.2495L13.1878 38.3397V31.991ZM28.4796 40.2495L22.9009 37.0287V33.302L28.4796 30.0812L31.7066 31.9445V38.3862L28.4796 40.2495ZM32.5325 32.4214L34.8314 33.749L37.2853 35.1664L32.5325 37.9103V32.4214ZM43.6908 20.3464L38.5251 23.3288V17.363L43.6908 14.3806V20.3453V20.3464ZM38.1122 10.6828L43.2779 13.6652L38.1122 16.6476L33.2881 13.8624L32.9464 13.6652L38.1122 10.6828ZM23.3139 8.10409L28.0667 5.36018V10.849L23.3139 8.10512V8.10409ZM22.488 1.66241L27.6537 4.64479L22.488 7.62716L21.1966 6.88182L17.3223 4.64479L22.488 1.66241ZM16.9093 5.36018L20.7836 7.59722L21.6621 8.10409L16.9093 10.848V5.35915V5.36018ZM6.86486 10.6828L12.0306 13.6652L11.6889 13.8624L6.86486 16.6476L5.57343 15.9022L1.69913 13.6652L6.86486 10.6828ZM1.2862 14.3806L5.1605 16.6176L6.45193 17.363V23.3288L1.2862 20.3464V14.3816V14.3806ZM6.45193 28.9621V34.5439L1.61758 31.7525L6.45193 28.9611V28.9621ZM1.20465 32.4679L6.37038 35.4503V41.416L1.20465 38.4337V32.4679ZM7.19624 41.416V35.8343L12.0306 38.6257L7.19624 41.4171V41.416ZM16.9093 41.4418L22.0751 44.4242V50.39L16.9093 47.4076V41.4418ZM28.0677 47.4076L22.902 50.39V44.4242L28.0677 41.4418V47.4076ZM37.6992 35.8818V41.3706L32.9464 38.6267L37.6992 35.8828V35.8818ZM43.6908 38.3872L38.5251 41.3696V35.4038L43.6908 32.4214V38.3872ZM43.2779 31.7071L38.5251 34.451V28.9621L43.2779 31.706V31.7071Z" fill="#B4B4B4"/>
<path d="M44.3112 20.942C44.4393 20.8687 44.5177 20.7325 44.5177 20.5848V13.6662C44.5177 13.5186 44.4393 13.3823 44.3112 13.3091L38.3197 9.84974C38.1917 9.77645 38.0347 9.77645 37.9067 9.84974L32.1216 13.1903L28.8946 11.327V4.64685C28.8946 4.49923 28.8161 4.36296 28.6881 4.28967L22.6965 0.830362C22.5685 0.757067 22.4116 0.757067 22.2836 0.830362L16.292 4.28967C16.164 4.36296 16.0855 4.49923 16.0855 4.64685V11.327L12.8585 13.1903L7.07339 9.84974C6.94538 9.77645 6.78847 9.77645 6.66046 9.84974L0.668878 13.3091C0.54087 13.3823 0.462414 13.5186 0.462414 13.6662V20.5848C0.462414 20.7325 0.54087 20.8687 0.668878 20.942L6.454 24.2826V28.0093L0.587323 31.3963C0.459316 31.4696 0.380859 31.6069 0.380859 31.7535V38.6721C0.380859 38.8197 0.459316 38.956 0.587323 39.0293L6.57891 42.4886C6.64291 42.5258 6.71414 42.5444 6.78537 42.5444C6.8566 42.5444 6.92783 42.5258 6.99184 42.4886L12.8585 39.1016L16.0855 40.9649V47.6451C16.0855 47.7927 16.164 47.9289 16.292 48.0022L22.2836 51.4615C22.3476 51.4987 22.4188 51.5173 22.4901 51.5173C22.5613 51.5173 22.6325 51.4987 22.6965 51.4615L28.6881 48.0022C28.8161 47.9289 28.8946 47.7916 28.8946 47.6451V40.9649L32.1216 39.1016L37.9067 42.4422C37.9707 42.4793 38.042 42.4979 38.1132 42.4979C38.1844 42.4979 38.2557 42.4793 38.3197 42.4422L44.3112 38.9829C44.4393 38.9096 44.5177 38.7723 44.5177 38.6257V31.7071C44.5177 31.5594 44.4393 31.4232 44.3112 31.3499L38.5261 28.0093V24.2826L44.3112 20.942ZM7.69072 35.1653L12.363 32.4679V37.8628L7.69072 35.1653ZM16.4964 12.0403L22.0751 15.2612V18.9878L16.4964 22.2087L13.2694 20.3453V13.9037L16.4964 12.0403ZM31.7076 13.9037V20.3453L28.4806 22.2087L22.902 18.9878V15.2612L28.4806 12.0403L31.7076 13.9037ZM17.3223 40.7264L22.0751 37.9825V43.4714L17.3223 40.7275V40.7264ZM12.7759 31.2756L7.27779 28.1012V24.2816L12.8564 21.0607L16.0835 22.9241V29.3658L12.7759 31.2756ZM12.4435 14.3796V19.8684L7.69072 17.1245L8.56922 16.6176L12.4435 14.3806V14.3796ZM22.9009 25.4285V19.9396L27.6537 22.6836L22.9009 25.4275V25.4285ZM22.0751 25.4285L21.1006 24.8659L17.3223 22.6846L22.0751 19.9407V25.4295V25.4285ZM12.0306 20.5828L7.27779 23.3267V17.8378L12.0306 20.5817V20.5828ZM11.9501 31.7515L7.27779 34.4489V29.054L11.9501 31.7515ZM16.9093 23.4L21.6621 26.1439L16.9093 28.8878V23.3989V23.4ZM22.0751 26.8593V32.3481L17.3223 29.6042L22.0751 26.8603V26.8593ZM22.9009 43.4693V37.9805L27.6537 40.7244L22.9009 43.4683V43.4693ZM22.9009 26.8593L27.6537 29.6032L22.9009 32.3471V26.8583V26.8593ZM23.3139 26.1439L28.0667 23.4V28.8888L23.3139 26.1449V26.1439ZM28.8925 22.923L32.1195 21.0597L37.6982 24.2806V28.0072L32.1195 31.2281L28.8925 29.3647V22.923ZM32.9454 31.705L37.6982 28.9611V34.4499L32.9454 31.706V31.705ZM37.6982 23.3277L32.9454 20.5838L37.6982 17.8399V23.3288V23.3277ZM32.5325 14.3796L36.4068 16.6166L37.2853 17.1235L32.5325 19.8674V14.3785V14.3796ZM22.9009 14.3073V8.81846L27.6537 11.5624L22.9009 14.3063V14.3073ZM22.0751 14.3073L17.3223 11.5634L22.0751 8.81949V14.3083V14.3073ZM13.1878 31.991L16.4954 30.0812L22.074 33.302V37.0287L16.4954 40.2495L13.1878 38.3397V31.991ZM28.4796 40.2495L22.9009 37.0287V33.302L28.4796 30.0812L31.7066 31.9445V38.3862L28.4796 40.2495ZM32.5325 32.4214L34.8314 33.749L37.2853 35.1664L32.5325 37.9103V32.4214ZM43.6908 20.3464L38.5251 23.3288V17.363L43.6908 14.3806V20.3453V20.3464ZM38.1122 10.6828L43.2779 13.6652L38.1122 16.6476L33.2881 13.8624L32.9464 13.6652L38.1122 10.6828ZM23.3139 8.10409L28.0667 5.36018V10.849L23.3139 8.10512V8.10409ZM22.488 1.66241L27.6537 4.64479L22.488 7.62716L21.1966 6.88182L17.3223 4.64479L22.488 1.66241ZM16.9093 5.36018L20.7836 7.59722L21.6621 8.10409L16.9093 10.848V5.35915V5.36018ZM6.86486 10.6828L12.0306 13.6652L11.6889 13.8624L6.86486 16.6476L5.57343 15.9022L1.69913 13.6652L6.86486 10.6828ZM1.2862 14.3806L5.1605 16.6176L6.45193 17.363V23.3288L1.2862 20.3464V14.3816V14.3806ZM6.45193 28.9621V34.5439L1.61758 31.7525L6.45193 28.9611V28.9621ZM1.20465 32.4679L6.37038 35.4503V41.416L1.20465 38.4337V32.4679ZM7.19624 41.416V35.8343L12.0306 38.6257L7.19624 41.4171V41.416ZM16.9093 41.4418L22.0751 44.4242V50.39L16.9093 47.4076V41.4418ZM28.0677 47.4076L22.902 50.39V44.4242L28.0677 41.4418V47.4076ZM37.6992 35.8818V41.3706L32.9464 38.6267L37.6992 35.8828V35.8818ZM43.6908 38.3872L38.5251 41.3696V35.4038L43.6908 32.4214V38.3872ZM43.2779 31.7071L38.5251 34.451V28.9621L43.2779 31.706V31.7071Z" stroke="#B4B4B4" stroke-width="0.367977" mask="url(#path-1-outside-1_429_1040)"/>
</svg>
