<svg width="66" height="66" viewBox="0 0 66 66" fill="none" xmlns="http://www.w3.org/2000/svg">
<g clip-path="url(#clip0_475_216)">
<path d="M16.5 31.9185V49.5001H34.0817L30.415 45.8335H20.1667V35.5851L16.5 31.9185Z" fill="#B4B4B4"/>
<path d="M63.9287 59.1984L58.667 53.8634V58.6668H7.33369V51.0584H11.0004V48.1251H7.33369V35.9334H11.0004V33.0001H7.33369V21.2668H11.0004V18.3334H7.33369V8.08508L36.557 37.1434V31.9734L6.80202 2.36508C6.54559 2.10653 6.21798 1.9302 5.86094 1.85857C5.5039 1.78694 5.13362 1.82326 4.79731 1.9629C4.46099 2.10254 4.17388 2.33917 3.97258 2.64263C3.77128 2.94608 3.66491 3.3026 3.66702 3.66675V60.5001C3.66702 60.9863 3.86018 61.4526 4.20399 61.7965C4.54781 62.1403 5.01413 62.3334 5.50036 62.3334H62.627C62.9912 62.3355 63.3477 62.2292 63.6511 62.0279C63.9546 61.8266 64.1912 61.5394 64.3309 61.2031C64.4705 60.8668 64.5068 60.4965 64.4352 60.1395C64.3636 59.7825 64.1872 59.4548 63.9287 59.1984Z" fill="#B4B4B4"/>
<path d="M43.9997 55H51.333C52.3055 55 53.2381 54.6137 53.9257 53.9261C54.6134 53.2384 54.9997 52.3058 54.9997 51.3334V15.95L50.783 8.19502C50.4569 7.63002 49.9859 7.16226 49.4187 6.83999C48.8515 6.51772 48.2086 6.3526 47.5563 6.36168C46.8893 6.36698 46.2363 6.55415 45.6677 6.90305C45.0991 7.25195 44.6365 7.74935 44.3297 8.34168L40.333 15.9867V51.3334C40.333 52.3058 40.7193 53.2384 41.407 53.9261C42.0946 54.6137 43.0272 55 43.9997 55ZM43.9997 16.8667L47.5563 9.95502L51.333 16.885V44H43.9997V16.8667ZM43.9997 46.9883H51.333V51.4617H43.9997V46.9883Z" fill="#B4B4B4"/>
</g>
<defs>
<clipPath id="clip0_475_216">
<rect width="66" height="66" fill="white"/>
</clipPath>
</defs>
</svg>
