<svg width="78" height="59" viewBox="0 0 78 59" fill="none" xmlns="http://www.w3.org/2000/svg">
<path d="M23.3504 13.5185C22.9883 13.8805 22.4972 14.0839 21.9852 14.0839C21.4732 14.0839 20.9821 13.8805 20.62 13.5185C20.258 13.1564 20.0546 12.6653 20.0546 12.1533C20.0546 11.6413 20.258 11.1502 20.62 10.7881C20.9821 10.4261 21.4732 10.2227 21.9852 10.2227C22.4972 10.2227 22.9883 10.4261 23.3504 10.7881C23.7124 11.1502 23.9158 11.6413 23.9158 12.1533C23.9158 12.6653 23.7124 13.1564 23.3504 13.5185ZM14.1933 12.1533C14.1933 12.6653 13.9899 13.1564 13.6278 13.5185C13.2658 13.8805 12.7747 14.0839 12.2627 14.0839C11.7506 14.0839 11.2596 13.8805 10.8975 13.5185C10.5354 13.1564 10.332 12.6653 10.332 12.1533C10.332 11.6413 10.5354 11.1502 10.8975 10.7881C11.2596 10.4261 11.7506 10.2227 12.2627 10.2227C12.7747 10.2227 13.2658 10.4261 13.6278 10.7881C13.9899 11.1502 14.1933 11.6413 14.1933 12.1533Z" fill="#B4B4B4" stroke="black"/>
<path d="M41.4312 23.8064H40.9312V24.3064V38.8902V39.3902H41.4312C43.2325 39.3902 44.96 40.1058 46.2338 41.3795C47.5075 42.6532 48.2231 44.3808 48.2231 46.1821V46.6821H48.7231H75.4601C75.9721 46.6821 76.4632 46.8855 76.8252 47.2476C77.1873 47.6096 77.3907 48.1007 77.3907 48.6127C77.3907 49.1248 77.1873 49.6158 76.8252 49.9779C76.4632 50.34 75.9721 50.5434 75.4601 50.5434H48.7231H48.2231V51.0434C48.2231 52.8447 47.5075 54.5722 46.2338 55.846C44.96 57.1197 43.2325 57.8353 41.4312 57.8353H36.5699C34.7686 57.8353 33.041 57.1197 31.7673 55.846C30.4936 54.5722 29.778 52.8447 29.778 51.0434V50.5434H29.278H2.54099C2.02895 50.5434 1.53789 50.34 1.17582 49.9779C0.813757 49.6158 0.610352 49.1248 0.610352 48.6127C0.610352 48.1007 0.813757 47.6096 1.17582 47.2476C1.53789 46.8855 2.02895 46.6821 2.54099 46.6821H29.278H29.778V46.1821C29.778 44.3808 30.4936 42.6532 31.7673 41.3795C33.041 40.1058 34.7686 39.3902 36.5699 39.3902H37.0699V38.8902V24.3064V23.8064H36.5699H9.8329C7.38693 23.8064 5.04114 22.8347 3.31157 21.1051C1.58201 19.3756 0.610352 17.0298 0.610352 14.5838V9.72255C0.610352 7.27657 1.58201 4.93078 3.31157 3.20122C5.04114 1.47166 7.38693 0.5 9.8329 0.5H68.1682C70.6141 0.5 72.9599 1.47166 74.6895 3.20122C76.4191 4.93078 77.3907 7.27657 77.3907 9.72255V14.5838C77.3907 17.0298 76.4191 19.3756 74.6895 21.1051C72.9599 22.8347 70.6141 23.8064 68.1682 23.8064H41.4312ZM4.47162 9.72255V14.5838C4.47162 16.0057 5.03647 17.3694 6.0419 18.3748C7.04734 19.3802 8.411 19.9451 9.8329 19.9451H68.1682C69.5901 19.9451 70.9537 19.3802 71.9592 18.3748C72.9646 17.3694 73.5294 16.0057 73.5294 14.5838V9.72255C73.5294 8.30065 72.9646 6.93699 71.9592 5.93155C70.9537 4.92612 69.5901 4.36127 68.1682 4.36127H9.8329C8.411 4.36127 7.04734 4.92612 6.0419 5.93155C5.03647 6.93699 4.47162 8.30065 4.47162 9.72255ZM33.6393 51.0434C33.6393 51.8206 33.948 52.566 34.4976 53.1156C35.0472 53.6652 35.7926 53.974 36.5699 53.974H41.4312C42.2084 53.974 42.9538 53.6652 43.5034 53.1156C44.053 52.566 44.3618 51.8206 44.3618 51.0434V46.1821C44.3618 45.4048 44.053 44.6594 43.5034 44.1098C42.9538 43.5602 42.2084 43.2515 41.4312 43.2515H36.5699C35.7926 43.2515 35.0472 43.5602 34.4976 44.1098C33.948 44.6594 33.6393 45.4048 33.6393 46.1821V51.0434Z" fill="#B4B4B4" stroke="black"/>
</svg>
