<svg width="64" height="74" viewBox="0 0 64 74" fill="none" xmlns="http://www.w3.org/2000/svg">
<mask id="path-1-outside-1_114_1141" maskUnits="userSpaceOnUse" x="-0.0888672" y="0" width="65" height="74" fill="black">
<rect fill="white" x="-0.0888672" width="65" height="74"/>
<path d="M63.4516 29.7098C63.6339 29.6054 63.7455 29.4114 63.7455 29.2013V19.3517C63.7455 19.1416 63.6339 18.9476 63.4516 18.8433L54.9218 13.9185C54.7396 13.8141 54.5162 13.8141 54.334 13.9185L46.0981 18.6742L41.504 16.0215V6.51151C41.504 6.30136 41.3923 6.10736 41.2101 6.00302L32.6803 1.07826C32.4981 0.973914 32.2747 0.973914 32.0925 1.07826L23.5627 6.00302C23.3804 6.10736 23.2687 6.30136 23.2687 6.51151V16.0215L18.6747 18.6742L10.4388 13.9185C10.2566 13.8141 10.0332 13.8141 9.85095 13.9185L1.32116 18.8433C1.13893 18.9476 1.02724 19.1416 1.02724 19.3517V29.2013C1.02724 29.4114 1.13893 29.6054 1.32116 29.7098L9.55702 34.4655V39.7709L1.20506 44.5928C1.02283 44.6971 0.911133 44.8926 0.911133 45.1013V54.9508C0.911133 55.161 1.02283 55.355 1.20506 55.4593L9.73485 60.3841C9.82596 60.437 9.92737 60.4634 10.0288 60.4634C10.1302 60.4634 10.2316 60.437 10.3227 60.3841L18.6747 55.5622L23.2687 58.2149V67.7249C23.2687 67.9351 23.3804 68.1291 23.5627 68.2334L32.0925 73.1582C32.1836 73.2111 32.285 73.2375 32.3864 73.2375C32.4878 73.2375 32.5892 73.2111 32.6803 73.1582L41.2101 68.2334C41.3923 68.1291 41.504 67.9336 41.504 67.7249V58.2149L46.0981 55.5622L54.334 60.3179C54.4251 60.3708 54.5265 60.3973 54.6279 60.3973C54.7293 60.3973 54.8307 60.3708 54.9218 60.3179L63.4516 55.3932C63.6339 55.2888 63.7455 55.0934 63.7455 54.8847V45.0352C63.7455 44.825 63.6339 44.631 63.4516 44.5267L55.2158 39.7709V34.4655L63.4516 29.7098ZM11.3176 49.9585L17.9692 46.1183V53.7986L11.3176 49.9585ZM23.8537 17.0371L31.7956 21.6223V26.9277L23.8537 31.513L19.2596 28.8603V19.6898L23.8537 17.0371ZM45.5088 19.6898V28.8603L40.9147 31.513L32.9728 26.9277V21.6223L40.9147 17.0371L45.5088 19.6898ZM25.0294 57.8754L31.7956 53.9691V61.7832L25.0294 57.8769V57.8754ZM18.5571 44.4209L10.7298 39.9017V34.464L18.6717 29.8788L23.2658 32.5315V41.702L18.5571 44.4209ZM18.0839 20.3673V28.1813L11.3176 24.275L12.5683 23.5534L18.0839 20.3687V20.3673ZM32.9713 36.0968V28.2827L39.7375 32.189L32.9713 36.0953V36.0968ZM31.7956 36.0968L30.4083 35.2959L25.0294 32.1905L31.7956 28.2842V36.0983V36.0968ZM17.496 29.1983L10.7298 33.1046V25.2906L17.496 29.1969V29.1983ZM17.3814 45.0984L10.7298 48.9385V41.2582L17.3814 45.0984ZM24.4415 33.209L31.2077 37.1153L24.4415 41.0216V33.2075V33.209ZM31.7956 38.1337V45.9478L25.0294 42.0415L31.7956 38.1352V38.1337ZM32.9713 61.7802V53.9662L39.7375 57.8725L32.9713 61.7788V61.7802ZM32.9713 38.1337L39.7375 42.04L32.9713 45.9463V38.1323V38.1337ZM33.5592 37.1153L40.3254 33.209V41.023L33.5592 37.1167V37.1153ZM41.5011 32.53L46.0952 29.8773L54.0371 34.4626V39.768L46.0952 44.3532L41.5011 41.7006V32.53ZM47.2709 45.0322L54.0371 41.1259V48.94L47.2709 45.0337V45.0322ZM54.0371 33.1061L47.2709 29.1998L54.0371 25.2935V33.1076V33.1061ZM46.683 20.3673L52.1986 23.552L53.4492 24.2736L46.683 28.1799V20.3658V20.3673ZM32.9713 20.2644V12.4503L39.7375 16.3566L32.9713 20.2629V20.2644ZM31.7956 20.2644L25.0294 16.3581L31.7956 12.4518V20.2659V20.2644ZM19.1435 45.4393L23.8522 42.7205L31.7941 47.3057V52.6111L23.8522 57.1964L19.1435 54.4776V45.4393ZM40.9132 57.1964L32.9713 52.6111V47.3057L40.9132 42.7205L45.5073 45.3732V54.5437L40.9132 57.1964ZM46.683 46.0521L49.9559 47.9421L53.4492 49.9599L46.683 53.8662V46.0521ZM62.5684 28.8618L55.2143 33.1076V24.6145L62.5684 20.3687V28.8603V28.8618ZM54.6264 15.1045L61.9805 19.3503L54.6264 23.5961L47.7588 19.631L47.2724 19.3503L54.6264 15.1045ZM33.5592 11.4333L40.3254 7.52703V15.3411L33.5592 11.4348V11.4333ZM32.3834 2.26279L39.7375 6.50857L32.3834 10.7544L30.5449 9.69328L25.0294 6.50857L32.3834 2.26279ZM24.4415 7.52703L29.9571 10.7117L31.2077 11.4333L24.4415 15.3396V7.52556V7.52703ZM10.1419 15.1045L17.496 19.3503L17.0096 19.631L10.1419 23.5961L8.30342 22.535L2.78786 19.3503L10.1419 15.1045ZM2.20001 20.3687L7.71556 23.5534L9.55408 24.6145V33.1076L2.20001 28.8618V20.3702V20.3687ZM9.55408 41.1274V49.0737L2.67176 45.0998L9.55408 41.1259V41.1274ZM2.08391 46.1183L9.43798 50.3641V58.8571L2.08391 54.6113V46.1183ZM10.6137 58.8571V50.9108L17.496 54.8847L10.6137 58.8586V58.8571ZM24.4415 58.8939L31.7956 63.1396V71.6327L24.4415 67.3869V58.8939ZM40.3268 67.3869L32.9728 71.6327V63.1396L40.3268 58.8939V67.3869ZM54.0386 50.9784V58.7924L47.2724 54.8861L54.0386 50.9798V50.9784ZM62.5684 54.5452L55.2143 58.791V50.2979L62.5684 46.0521V54.5452ZM61.9805 45.0352L55.2143 48.9415V41.1274L61.9805 45.0337V45.0352Z"/>
</mask>
<path d="M63.4516 29.7098C63.6339 29.6054 63.7455 29.4114 63.7455 29.2013V19.3517C63.7455 19.1416 63.6339 18.9476 63.4516 18.8433L54.9218 13.9185C54.7396 13.8141 54.5162 13.8141 54.334 13.9185L46.0981 18.6742L41.504 16.0215V6.51151C41.504 6.30136 41.3923 6.10736 41.2101 6.00302L32.6803 1.07826C32.4981 0.973914 32.2747 0.973914 32.0925 1.07826L23.5627 6.00302C23.3804 6.10736 23.2687 6.30136 23.2687 6.51151V16.0215L18.6747 18.6742L10.4388 13.9185C10.2566 13.8141 10.0332 13.8141 9.85095 13.9185L1.32116 18.8433C1.13893 18.9476 1.02724 19.1416 1.02724 19.3517V29.2013C1.02724 29.4114 1.13893 29.6054 1.32116 29.7098L9.55702 34.4655V39.7709L1.20506 44.5928C1.02283 44.6971 0.911133 44.8926 0.911133 45.1013V54.9508C0.911133 55.161 1.02283 55.355 1.20506 55.4593L9.73485 60.3841C9.82596 60.437 9.92737 60.4634 10.0288 60.4634C10.1302 60.4634 10.2316 60.437 10.3227 60.3841L18.6747 55.5622L23.2687 58.2149V67.7249C23.2687 67.9351 23.3804 68.1291 23.5627 68.2334L32.0925 73.1582C32.1836 73.2111 32.285 73.2375 32.3864 73.2375C32.4878 73.2375 32.5892 73.2111 32.6803 73.1582L41.2101 68.2334C41.3923 68.1291 41.504 67.9336 41.504 67.7249V58.2149L46.0981 55.5622L54.334 60.3179C54.4251 60.3708 54.5265 60.3973 54.6279 60.3973C54.7293 60.3973 54.8307 60.3708 54.9218 60.3179L63.4516 55.3932C63.6339 55.2888 63.7455 55.0934 63.7455 54.8847V45.0352C63.7455 44.825 63.6339 44.631 63.4516 44.5267L55.2158 39.7709V34.4655L63.4516 29.7098ZM11.3176 49.9585L17.9692 46.1183V53.7986L11.3176 49.9585ZM23.8537 17.0371L31.7956 21.6223V26.9277L23.8537 31.513L19.2596 28.8603V19.6898L23.8537 17.0371ZM45.5088 19.6898V28.8603L40.9147 31.513L32.9728 26.9277V21.6223L40.9147 17.0371L45.5088 19.6898ZM25.0294 57.8754L31.7956 53.9691V61.7832L25.0294 57.8769V57.8754ZM18.5571 44.4209L10.7298 39.9017V34.464L18.6717 29.8788L23.2658 32.5315V41.702L18.5571 44.4209ZM18.0839 20.3673V28.1813L11.3176 24.275L12.5683 23.5534L18.0839 20.3687V20.3673ZM32.9713 36.0968V28.2827L39.7375 32.189L32.9713 36.0953V36.0968ZM31.7956 36.0968L30.4083 35.2959L25.0294 32.1905L31.7956 28.2842V36.0983V36.0968ZM17.496 29.1983L10.7298 33.1046V25.2906L17.496 29.1969V29.1983ZM17.3814 45.0984L10.7298 48.9385V41.2582L17.3814 45.0984ZM24.4415 33.209L31.2077 37.1153L24.4415 41.0216V33.2075V33.209ZM31.7956 38.1337V45.9478L25.0294 42.0415L31.7956 38.1352V38.1337ZM32.9713 61.7802V53.9662L39.7375 57.8725L32.9713 61.7788V61.7802ZM32.9713 38.1337L39.7375 42.04L32.9713 45.9463V38.1323V38.1337ZM33.5592 37.1153L40.3254 33.209V41.023L33.5592 37.1167V37.1153ZM41.5011 32.53L46.0952 29.8773L54.0371 34.4626V39.768L46.0952 44.3532L41.5011 41.7006V32.53ZM47.2709 45.0322L54.0371 41.1259V48.94L47.2709 45.0337V45.0322ZM54.0371 33.1061L47.2709 29.1998L54.0371 25.2935V33.1076V33.1061ZM46.683 20.3673L52.1986 23.552L53.4492 24.2736L46.683 28.1799V20.3658V20.3673ZM32.9713 20.2644V12.4503L39.7375 16.3566L32.9713 20.2629V20.2644ZM31.7956 20.2644L25.0294 16.3581L31.7956 12.4518V20.2659V20.2644ZM19.1435 45.4393L23.8522 42.7205L31.7941 47.3057V52.6111L23.8522 57.1964L19.1435 54.4776V45.4393ZM40.9132 57.1964L32.9713 52.6111V47.3057L40.9132 42.7205L45.5073 45.3732V54.5437L40.9132 57.1964ZM46.683 46.0521L49.9559 47.9421L53.4492 49.9599L46.683 53.8662V46.0521ZM62.5684 28.8618L55.2143 33.1076V24.6145L62.5684 20.3687V28.8603V28.8618ZM54.6264 15.1045L61.9805 19.3503L54.6264 23.5961L47.7588 19.631L47.2724 19.3503L54.6264 15.1045ZM33.5592 11.4333L40.3254 7.52703V15.3411L33.5592 11.4348V11.4333ZM32.3834 2.26279L39.7375 6.50857L32.3834 10.7544L30.5449 9.69328L25.0294 6.50857L32.3834 2.26279ZM24.4415 7.52703L29.9571 10.7117L31.2077 11.4333L24.4415 15.3396V7.52556V7.52703ZM10.1419 15.1045L17.496 19.3503L17.0096 19.631L10.1419 23.5961L8.30342 22.535L2.78786 19.3503L10.1419 15.1045ZM2.20001 20.3687L7.71556 23.5534L9.55408 24.6145V33.1076L2.20001 28.8618V20.3702V20.3687ZM9.55408 41.1274V49.0737L2.67176 45.0998L9.55408 41.1259V41.1274ZM2.08391 46.1183L9.43798 50.3641V58.8571L2.08391 54.6113V46.1183ZM10.6137 58.8571V50.9108L17.496 54.8847L10.6137 58.8586V58.8571ZM24.4415 58.8939L31.7956 63.1396V71.6327L24.4415 67.3869V58.8939ZM40.3268 67.3869L32.9728 71.6327V63.1396L40.3268 58.8939V67.3869ZM54.0386 50.9784V58.7924L47.2724 54.8861L54.0386 50.9798V50.9784ZM62.5684 54.5452L55.2143 58.791V50.2979L62.5684 46.0521V54.5452ZM61.9805 45.0352L55.2143 48.9415V41.1274L61.9805 45.0337V45.0352Z" fill="#B4B4B4"/>
<path d="M63.4516 29.7098C63.6339 29.6054 63.7455 29.4114 63.7455 29.2013V19.3517C63.7455 19.1416 63.6339 18.9476 63.4516 18.8433L54.9218 13.9185C54.7396 13.8141 54.5162 13.8141 54.334 13.9185L46.0981 18.6742L41.504 16.0215V6.51151C41.504 6.30136 41.3923 6.10736 41.2101 6.00302L32.6803 1.07826C32.4981 0.973914 32.2747 0.973914 32.0925 1.07826L23.5627 6.00302C23.3804 6.10736 23.2687 6.30136 23.2687 6.51151V16.0215L18.6747 18.6742L10.4388 13.9185C10.2566 13.8141 10.0332 13.8141 9.85095 13.9185L1.32116 18.8433C1.13893 18.9476 1.02724 19.1416 1.02724 19.3517V29.2013C1.02724 29.4114 1.13893 29.6054 1.32116 29.7098L9.55702 34.4655V39.7709L1.20506 44.5928C1.02283 44.6971 0.911133 44.8926 0.911133 45.1013V54.9508C0.911133 55.161 1.02283 55.355 1.20506 55.4593L9.73485 60.3841C9.82596 60.437 9.92737 60.4634 10.0288 60.4634C10.1302 60.4634 10.2316 60.437 10.3227 60.3841L18.6747 55.5622L23.2687 58.2149V67.7249C23.2687 67.9351 23.3804 68.1291 23.5627 68.2334L32.0925 73.1582C32.1836 73.2111 32.285 73.2375 32.3864 73.2375C32.4878 73.2375 32.5892 73.2111 32.6803 73.1582L41.2101 68.2334C41.3923 68.1291 41.504 67.9336 41.504 67.7249V58.2149L46.0981 55.5622L54.334 60.3179C54.4251 60.3708 54.5265 60.3973 54.6279 60.3973C54.7293 60.3973 54.8307 60.3708 54.9218 60.3179L63.4516 55.3932C63.6339 55.2888 63.7455 55.0934 63.7455 54.8847V45.0352C63.7455 44.825 63.6339 44.631 63.4516 44.5267L55.2158 39.7709V34.4655L63.4516 29.7098ZM11.3176 49.9585L17.9692 46.1183V53.7986L11.3176 49.9585ZM23.8537 17.0371L31.7956 21.6223V26.9277L23.8537 31.513L19.2596 28.8603V19.6898L23.8537 17.0371ZM45.5088 19.6898V28.8603L40.9147 31.513L32.9728 26.9277V21.6223L40.9147 17.0371L45.5088 19.6898ZM25.0294 57.8754L31.7956 53.9691V61.7832L25.0294 57.8769V57.8754ZM18.5571 44.4209L10.7298 39.9017V34.464L18.6717 29.8788L23.2658 32.5315V41.702L18.5571 44.4209ZM18.0839 20.3673V28.1813L11.3176 24.275L12.5683 23.5534L18.0839 20.3687V20.3673ZM32.9713 36.0968V28.2827L39.7375 32.189L32.9713 36.0953V36.0968ZM31.7956 36.0968L30.4083 35.2959L25.0294 32.1905L31.7956 28.2842V36.0983V36.0968ZM17.496 29.1983L10.7298 33.1046V25.2906L17.496 29.1969V29.1983ZM17.3814 45.0984L10.7298 48.9385V41.2582L17.3814 45.0984ZM24.4415 33.209L31.2077 37.1153L24.4415 41.0216V33.2075V33.209ZM31.7956 38.1337V45.9478L25.0294 42.0415L31.7956 38.1352V38.1337ZM32.9713 61.7802V53.9662L39.7375 57.8725L32.9713 61.7788V61.7802ZM32.9713 38.1337L39.7375 42.04L32.9713 45.9463V38.1323V38.1337ZM33.5592 37.1153L40.3254 33.209V41.023L33.5592 37.1167V37.1153ZM41.5011 32.53L46.0952 29.8773L54.0371 34.4626V39.768L46.0952 44.3532L41.5011 41.7006V32.53ZM47.2709 45.0322L54.0371 41.1259V48.94L47.2709 45.0337V45.0322ZM54.0371 33.1061L47.2709 29.1998L54.0371 25.2935V33.1076V33.1061ZM46.683 20.3673L52.1986 23.552L53.4492 24.2736L46.683 28.1799V20.3658V20.3673ZM32.9713 20.2644V12.4503L39.7375 16.3566L32.9713 20.2629V20.2644ZM31.7956 20.2644L25.0294 16.3581L31.7956 12.4518V20.2659V20.2644ZM19.1435 45.4393L23.8522 42.7205L31.7941 47.3057V52.6111L23.8522 57.1964L19.1435 54.4776V45.4393ZM40.9132 57.1964L32.9713 52.6111V47.3057L40.9132 42.7205L45.5073 45.3732V54.5437L40.9132 57.1964ZM46.683 46.0521L49.9559 47.9421L53.4492 49.9599L46.683 53.8662V46.0521ZM62.5684 28.8618L55.2143 33.1076V24.6145L62.5684 20.3687V28.8603V28.8618ZM54.6264 15.1045L61.9805 19.3503L54.6264 23.5961L47.7588 19.631L47.2724 19.3503L54.6264 15.1045ZM33.5592 11.4333L40.3254 7.52703V15.3411L33.5592 11.4348V11.4333ZM32.3834 2.26279L39.7375 6.50857L32.3834 10.7544L30.5449 9.69328L25.0294 6.50857L32.3834 2.26279ZM24.4415 7.52703L29.9571 10.7117L31.2077 11.4333L24.4415 15.3396V7.52556V7.52703ZM10.1419 15.1045L17.496 19.3503L17.0096 19.631L10.1419 23.5961L8.30342 22.535L2.78786 19.3503L10.1419 15.1045ZM2.20001 20.3687L7.71556 23.5534L9.55408 24.6145V33.1076L2.20001 28.8618V20.3702V20.3687ZM9.55408 41.1274V49.0737L2.67176 45.0998L9.55408 41.1259V41.1274ZM2.08391 46.1183L9.43798 50.3641V58.8571L2.08391 54.6113V46.1183ZM10.6137 58.8571V50.9108L17.496 54.8847L10.6137 58.8586V58.8571ZM24.4415 58.8939L31.7956 63.1396V71.6327L24.4415 67.3869V58.8939ZM40.3268 67.3869L32.9728 71.6327V63.1396L40.3268 58.8939V67.3869ZM54.0386 50.9784V58.7924L47.2724 54.8861L54.0386 50.9798V50.9784ZM62.5684 54.5452L55.2143 58.791V50.2979L62.5684 46.0521V54.5452ZM61.9805 45.0352L55.2143 48.9415V41.1274L61.9805 45.0337V45.0352Z" stroke="#B4B4B4" stroke-width="0.406779" mask="url(#path-1-outside-1_114_1141)"/>
</svg>
