<svg width="62" height="33" viewBox="0 0 62 33" fill="none" xmlns="http://www.w3.org/2000/svg">
<path d="M53.1737 0.205078H0.0136719V32.5169H61.8276V0.205078H53.1737ZM59.3551 24.1544C57.9539 24.5334 56.6763 25.2757 55.6503 26.3072C54.6242 27.3386 53.8857 28.6228 53.5087 30.0314H8.33259C7.95523 28.623 7.21661 27.3389 6.19063 26.3076C5.16464 25.2762 3.88726 24.5337 2.48623 24.1544V8.56763C3.88726 8.18828 5.16464 7.4458 6.19063 6.41443C7.21661 5.38307 7.95523 4.09898 8.33259 2.6906H53.5371C53.9486 4.07387 54.6957 5.33259 55.7113 6.35349C56.7269 7.37439 57.979 8.12544 59.3551 8.53905V24.1544ZM33.5366 18.9149C33.2523 18.7409 33.3932 18.5806 32.1569 18.4327V22.033L32.8344 21.9062C33.7517 21.5831 34.2116 20.9803 34.2116 20.103C34.2116 19.5947 33.9854 19.1945 33.5366 18.9149ZM27.9721 13.0403C27.9721 13.5934 28.2231 14.0097 28.7225 14.2831C28.9142 14.3912 29.2368 14.5118 29.6831 14.6423V11.2358C29.346 11.3096 29.0242 11.4421 28.7324 11.6273C28.2256 11.9653 27.9721 12.4376 27.9721 13.0403ZM30.9207 3.93337C24.7751 3.93337 19.7941 9.49846 19.7941 16.361C19.7941 23.2223 24.7751 28.7886 30.9207 28.7886C37.0662 28.7886 42.0472 23.2223 42.0472 16.361C42.0472 9.49846 37.0662 3.93337 30.9207 3.93337ZM35.6853 23.3876C34.8458 24.1084 33.3932 24.5496 32.1569 24.7161V26.3031H29.6844V24.6875C28.3937 24.511 27.3243 24.3147 26.4849 23.6498C25.9492 23.2239 25.5145 22.6833 25.2126 22.0675C24.9106 21.4516 24.7489 20.7758 24.7393 20.0893H27.8151C27.9153 20.0893 28.1106 21.0847 28.4023 21.4364C28.7052 21.7981 29.1355 21.8403 29.6844 21.9932V17.7616C28.1798 17.4124 27.1315 17.0358 26.5492 16.6307C25.5095 15.9161 24.9902 14.7964 24.9902 13.2752C24.9902 11.887 25.4983 10.7338 26.5158 9.81536C27.2922 9.1132 28.3504 8.68196 29.6844 8.51543V6.41889H32.1569V8.5813C33.3932 8.76647 34.2289 9.34311 35.0004 9.91851C36.1612 10.7847 36.9784 11.3899 37.0341 13.8755H33.9359C33.8778 12.6327 33.2572 12.0958 32.487 11.7031C32.3701 11.6267 32.2597 11.5407 32.1569 11.4459V15.3519L33.2721 15.5681C34.4576 15.849 35.5542 16.2243 36.1452 16.6928C37.065 17.4236 37.421 18.4787 37.421 19.8581C37.4235 21.2749 36.7732 22.4505 35.6853 23.3876Z" fill="#B4B4B4"/>
</svg>
