<svg width="72" height="72" viewBox="0 0 72 72" fill="none" xmlns="http://www.w3.org/2000/svg">
<g clip-path="url(#clip0_475_226)">
<path d="M0 37.5004H43.392M64.608 37.5004H72M30 30.0004V22.5003C30 22.5003 25.5 19.5003 18 19.5003C10.5 19.5003 6 22.5003 6 22.5003V30.0004M48 72.0004V55.5003H37.5V54.7503L37.716 54.3004C42.5128 44.2261 45.0013 33.2084 45 22.0503V21.0663C47.8824 20.0109 50.9304 19.4795 54 19.4973C57.864 19.4973 60.933 20.2953 63 21.0663V22.0503C63 33.2104 65.49 44.2234 70.284 54.2974L70.5 54.7474V55.4974H60V72.0004M17.55 13.5003C17.55 13.5003 12.75 10.5003 12.75 6.75035C12.75 5.35955 13.3025 4.02572 14.2859 3.04228C15.2694 2.05884 16.6032 1.50635 17.994 1.50635C19.3848 1.50635 20.7186 2.05884 21.7021 3.04228C22.6855 4.02572 23.238 5.35955 23.238 6.75035C23.238 10.5003 18.45 13.5003 18.45 13.5003H17.55ZM53.55 13.5003C53.55 13.5003 48.75 10.5003 48.75 6.75035C48.75 5.35955 49.3025 4.02572 50.2859 3.04228C51.2694 2.05884 52.6032 1.50635 53.994 1.50635C55.3848 1.50635 56.7186 2.05884 57.7021 3.04228C58.6855 4.02572 59.238 5.35955 59.238 6.75035C59.238 10.5003 54.45 13.5003 54.45 13.5003H53.55Z" stroke="#B4B4B4" stroke-width="3"/>
</g>
<defs>
<clipPath id="clip0_475_226">
<rect width="72" height="72" fill="white"/>
</clipPath>
</defs>
</svg>
