<svg width="66" height="66" viewBox="0 0 66 66" fill="none" xmlns="http://www.w3.org/2000/svg">
<path d="M59.45 46.75V47.2096L59.908 47.2482C60.6808 47.3134 61.4012 47.6655 61.9273 48.2354C62.4531 48.8051 62.7466 49.5509 62.75 50.3262V59.9282C62.6805 60.6934 62.3295 61.4058 61.7646 61.9273C61.1949 62.4531 60.4491 62.7466 59.6739 62.75H44.5718C43.8066 62.6805 43.0942 62.3295 42.5727 61.7646C42.0469 61.195 41.7534 60.4491 41.75 59.6739V50.0675C41.8032 49.3381 42.1171 48.6519 42.6345 48.1345L42.2896 47.7896L42.6345 48.1345C43.1558 47.6133 43.8483 47.2986 44.5837 47.2489L45.05 47.2173V46.75V42.6538C45.2566 40.8948 46.1001 39.2718 47.4217 38.0918C48.7503 36.9056 50.469 36.25 52.25 36.25C54.031 36.25 55.7497 36.9056 57.0783 38.0918C58.3999 39.2718 59.2434 40.8948 59.45 42.6538V46.75ZM47.6256 42.5999L47.625 42.6124V42.625V46.75V47.25H48.125H56.375H56.875V46.75V42.625V42.6124L56.8744 42.5999C56.8453 42.0232 56.7 41.4584 56.447 40.9394C56.1941 40.4205 55.8388 39.958 55.4025 39.5799L55.118 39.9081L55.4025 39.5799C54.9662 39.2017 54.4579 38.9158 53.9082 38.7391C53.3732 38.5672 52.8098 38.5024 52.25 38.5481C51.6902 38.5024 51.1268 38.5672 50.5918 38.7391C50.0421 38.9158 49.5338 39.2017 49.0975 39.5799C48.6612 39.958 48.3059 40.4205 48.053 40.9394C47.8 41.4584 47.6547 42.0232 47.6256 42.5999Z" fill="#B4B4B4" stroke="black"/>
<mask id="path-2-inside-1_114_1157" fill="white">
<path d="M66 30.25V5.5C66 4.04131 65.4205 2.64236 64.3891 1.61091C63.3576 0.579463 61.9587 0 60.5 0L5.5 0C4.04131 0 2.64236 0.579463 1.61091 1.61091C0.579463 2.64236 0 4.04131 0 5.5L0 55C0 56.4587 0.579463 57.8576 1.61091 58.8891C2.64236 59.9205 4.04131 60.5 5.5 60.5H35.75V55H5.5V5.5H60.5V30.25"/>
</mask>
<path d="M66 30.25V5.5C66 4.04131 65.4205 2.64236 64.3891 1.61091C63.3576 0.579463 61.9587 0 60.5 0L5.5 0C4.04131 0 2.64236 0.579463 1.61091 1.61091C0.579463 2.64236 0 4.04131 0 5.5L0 55C0 56.4587 0.579463 57.8576 1.61091 58.8891C2.64236 59.9205 4.04131 60.5 5.5 60.5H35.75V55H5.5V5.5H60.5V30.25" fill="#B4B4B4"/>
<path d="M5.5 0V-1V0ZM0 5.5H-1H0ZM0 55H-1H0ZM35.75 60.5V61.5H36.75V60.5H35.75ZM35.75 55H36.75V54H35.75V55ZM5.5 55H4.5V56H5.5V55ZM5.5 5.5V4.5H4.5V5.5H5.5ZM60.5 5.5H61.5V4.5H60.5V5.5ZM67 30.25V5.5H65V30.25H67ZM67 5.5C67 3.77609 66.3152 2.12279 65.0962 0.903806L63.682 2.31802C64.5259 3.16193 65 4.30653 65 5.5H67ZM65.0962 0.903806C63.8772 -0.31518 62.2239 -1 60.5 -1V1C61.6935 1 62.8381 1.47411 63.682 2.31802L65.0962 0.903806ZM60.5 -1H5.5V1H60.5V-1ZM5.5 -1C3.77609 -1 2.12279 -0.31518 0.903806 0.903806L2.31802 2.31802C3.16193 1.47411 4.30653 1 5.5 1V-1ZM0.903806 0.903806C-0.31518 2.12279 -1 3.77609 -1 5.5H1C1 4.30653 1.47411 3.16193 2.31802 2.31802L0.903806 0.903806ZM-1 5.5V55H1V5.5H-1ZM-1 55C-1 56.7239 -0.31518 58.3772 0.903806 59.5962L2.31802 58.182C1.47411 57.3381 1 56.1935 1 55H-1ZM0.903806 59.5962C2.12279 60.8152 3.77609 61.5 5.5 61.5V59.5C4.30653 59.5 3.16193 59.0259 2.31802 58.182L0.903806 59.5962ZM5.5 61.5H35.75V59.5H5.5V61.5ZM36.75 60.5V55H34.75V60.5H36.75ZM35.75 54H5.5V56H35.75V54ZM6.5 55V5.5H4.5V55H6.5ZM5.5 6.5H60.5V4.5H5.5V6.5ZM59.5 5.5V30.25H61.5V5.5H59.5Z" fill="black" mask="url(#path-2-inside-1_114_1157)"/>
<path d="M16.5 11H11V16.5H16.5V11ZM55 11H22V16.5H55V11ZM35.75 44H22V49.5H35.75V44ZM16.5 44H11V49.5H16.5V44ZM27.5 22H22V27.5H27.5V22ZM55 22H33V27.5H55V22ZM40.722 33H33V38.5H39.05V37.125C39.079 35.5907 39.6745 34.1214 40.722 33ZM27.5 33H22V38.5H27.5V33Z" fill="#B4B4B4"/>
</svg>
