<svg width="86" height="73" viewBox="0 0 86 73" fill="none" xmlns="http://www.w3.org/2000/svg">
<path d="M73.2313 16.955C73.5296 16.955 73.8157 16.8359 74.0267 16.624C74.2377 16.412 74.3562 16.1245 74.3562 15.8247V12.0607C74.355 11.079 73.9663 10.1378 73.2755 9.44366C72.5846 8.74948 71.648 8.35896 70.6709 8.35777H64.6256L63.2465 4.26824C63.1527 3.99013 62.955 3.75958 62.695 3.6254C62.4351 3.49123 62.1334 3.46395 61.8538 3.54935L29.1119 13.5505C28.8409 13.6498 28.6182 13.8498 28.4895 14.1092C28.3608 14.3686 28.336 14.6678 28.4202 14.945C28.5044 15.2222 28.6911 15.4565 28.942 15.5995C29.1929 15.7426 29.4889 15.7835 29.7689 15.7139L61.4669 6.02929L64.4884 14.9928C64.5842 15.2767 64.7882 15.5107 65.0557 15.6434C65.3232 15.7761 65.6323 15.7966 65.9148 15.7004C66.1973 15.6041 66.4302 15.3991 66.5623 15.1303C66.6944 14.8615 66.7148 14.551 66.619 14.2671L65.3883 10.6162H70.6732C71.4651 10.6162 72.1086 11.2627 72.1086 12.0585V15.8247C72.1063 16.4486 72.6103 16.955 73.2313 16.955Z" fill="#B4B4B4"/>
<path d="M76.1524 34.24C75.8999 34.24 75.6578 34.3418 75.4793 34.5229C75.3008 34.7041 75.2005 34.9497 75.2005 35.2059C75.2005 35.4621 75.3008 35.7077 75.4793 35.8889C75.6578 36.07 75.8999 36.1718 76.1524 36.1718C76.8206 36.1718 77.1042 36.4596 77.1042 37.1377V48.7282C77.1042 49.4062 76.8206 49.6941 76.1524 49.6941H60.9227C60.2545 49.6941 59.9708 49.4062 59.9708 48.7282V39.0694C59.9708 38.3914 60.2545 38.1035 60.9227 38.1035H72.345C72.5974 38.1035 72.8395 38.0018 73.018 37.8206C73.1965 37.6395 73.2968 37.3938 73.2968 37.1377V25.5471C73.2968 23.7873 72.1755 22.6495 70.4412 22.6495H12.3781C10.0308 22.6495 8.5707 21.1678 8.5707 18.786C8.5707 16.4041 10.0308 14.9225 12.3781 14.9225H22.0413L16.2807 16.8504C16.1577 16.8864 16.0431 16.9472 15.9438 17.0292C15.8445 17.1111 15.7625 17.2126 15.7027 17.3275C15.6429 17.4424 15.6066 17.5683 15.5959 17.6978C15.5853 17.8273 15.6004 17.9576 15.6405 18.081C15.6806 18.2043 15.7448 18.3182 15.8293 18.4158C15.9138 18.5134 16.0168 18.5928 16.1322 18.649C16.2476 18.7053 16.373 18.7373 16.5009 18.7433C16.6288 18.7492 16.7566 18.7289 16.8766 18.6836L51.3699 7.14522C51.4886 7.10539 51.5985 7.04222 51.6932 6.95931C51.7879 6.8764 51.8655 6.77538 51.9218 6.66201C51.978 6.54864 52.0116 6.42515 52.0208 6.29858C52.03 6.17201 52.0145 6.04485 51.9753 5.92435C51.936 5.80385 51.8738 5.69238 51.7921 5.59629C51.7104 5.50021 51.6108 5.4214 51.4991 5.36435C51.3874 5.30731 51.2657 5.27315 51.1409 5.26384C51.0162 5.25452 50.8909 5.27023 50.7721 5.31005L27.7372 13.0178C27.6935 13.01 27.6535 12.9907 27.6078 12.9907H12.3781C8.96287 12.9907 6.66699 15.3204 6.66699 18.786V61.2846C6.66699 64.7502 8.96287 67.0799 12.3781 67.0799H70.4412C72.1755 67.0799 73.2968 65.9421 73.2968 64.1822V54.5235C73.2968 54.2673 73.1965 54.0216 73.018 53.8405C72.8395 53.6593 72.5974 53.5576 72.345 53.5576C72.0925 53.5576 71.8504 53.6593 71.6719 53.8405C71.4934 54.0216 71.3931 54.2673 71.3931 54.5235V64.1822C71.3931 64.8603 71.1095 65.1481 70.4412 65.1481H12.3781C10.0308 65.1481 8.5707 63.6665 8.5707 61.2846V23.2522C9.5473 24.0886 10.8399 24.5812 12.3781 24.5812H70.4412C71.1095 24.5812 71.3931 24.8691 71.3931 25.5471V36.1718H60.9227C59.1884 36.1718 58.0671 37.3096 58.0671 39.0694V48.7282C58.0671 50.488 59.1884 51.6258 60.9227 51.6258H76.1524C77.8867 51.6258 79.0079 50.488 79.0079 48.7282V37.1377C79.0079 35.3778 77.8867 34.24 76.1524 34.24Z" fill="#B4B4B4"/>
<path d="M72.0848 47.4739C73.3274 47.4739 74.3346 46.4618 74.3346 45.2133C74.3346 43.9648 73.3274 42.9526 72.0848 42.9526C70.8422 42.9526 69.835 43.9648 69.835 45.2133C69.835 46.4618 70.8422 47.4739 72.0848 47.4739Z" fill="#B4B4B4"/>
<path d="M38.2631 43.9642C39.813 43.163 40.7994 41.7379 40.5705 39.3698C40.2709 36.1281 37.6379 35.0421 34.1509 34.7392V30.2515H31.4384V34.6144C30.7337 34.6144 30.0119 34.6325 29.2893 34.6497V30.2515H26.5768V34.7392C25.5796 34.7699 24.4179 34.7545 21.1348 34.7392V37.6599C23.2758 37.6219 24.4 37.4826 24.6576 38.8706V51.1582C24.4939 52.2596 23.6219 52.1014 21.6812 52.067L21.1357 55.3259C26.0813 55.3259 26.5786 55.3439 26.5786 55.3439V59.1869H29.2911V55.3973C30.0307 55.4154 30.7524 55.4154 31.4402 55.4154V59.1878H34.1527V55.3449C38.6968 55.0953 41.7349 53.9379 42.14 49.6102C42.4566 46.1379 40.837 44.5881 38.2649 43.9651L38.2631 43.9642ZM29.3421 37.8561C30.8741 37.8561 35.665 37.375 35.665 40.5986C35.665 43.6793 30.8741 43.3231 29.3421 43.3231V37.8561ZM29.3421 52.0842V46.0647C31.1737 46.0647 36.783 45.5484 36.783 49.074C36.783 52.4757 31.1737 52.0833 29.3421 52.0833V52.0842Z" fill="#B4B4B4"/>
</svg>
