<svg width="88" height="46" viewBox="0 0 88 46" fill="none" xmlns="http://www.w3.org/2000/svg">
<path d="M75.68 0H0V46H88V0H75.68ZM84.48 34.0948C82.4852 34.6344 80.6664 35.6913 79.2057 37.1596C77.7451 38.628 76.6937 40.4563 76.157 42.4615H11.843C11.3058 40.4565 10.2543 38.6285 8.79368 37.1602C7.33306 35.6919 5.51454 34.6349 3.52 34.0948V11.9052C5.51454 11.3651 7.33306 10.3081 8.79368 8.8398C10.2543 7.37152 11.3058 5.54346 11.843 3.53846H76.1974C76.7832 5.50771 77.8468 7.29966 79.2926 8.75305C80.7384 10.2064 82.521 11.2756 84.48 11.8645V34.0948ZM47.7242 26.6358C47.3194 26.3881 47.52 26.1598 45.76 25.9493V31.0748L46.7245 30.8943C48.0304 30.4343 48.6851 29.5762 48.6851 28.3272C48.6851 27.6035 48.363 27.0338 47.7242 26.6358ZM39.8024 18.2726C39.8024 19.0599 40.1597 19.6526 40.8707 20.0418C41.1435 20.1958 41.6029 20.3674 42.2382 20.5532V15.7037C41.7582 15.8087 41.3002 15.9973 40.8848 16.261C40.1632 16.7422 39.8024 17.4145 39.8024 18.2726ZM44 5.30769C35.251 5.30769 28.16 13.2303 28.16 23C28.16 32.7679 35.251 40.6923 44 40.6923C52.749 40.6923 59.84 32.7679 59.84 23C59.84 13.2303 52.749 5.30769 44 5.30769ZM50.783 33.0032C49.588 34.0294 47.52 34.6575 45.76 34.8945V37.1538H42.24V34.8538C40.4026 34.6026 38.8802 34.3231 37.6851 33.3765C36.9224 32.7702 36.3037 32.0007 35.8738 31.1239C35.444 30.2471 35.2138 29.2851 35.2 28.3077H39.5789C39.7214 28.3077 39.9995 29.7248 40.4149 30.2255C40.8461 30.7404 41.4586 30.8005 42.24 31.0182V24.9939C40.0981 24.4968 38.6056 23.9607 37.7766 23.3839C36.2965 22.3666 35.5573 20.7725 35.5573 18.607C35.5573 16.6308 36.2806 14.9889 37.7291 13.6815C38.8344 12.6818 40.341 12.0679 42.24 11.8308V8.84615H45.76V11.9246C47.52 12.1882 48.7098 13.0092 49.808 13.8283C51.4606 15.0615 52.624 15.9231 52.7032 19.4615H48.2926C48.2099 17.6923 47.3264 16.928 46.2299 16.3689C46.0635 16.2601 45.9063 16.1376 45.76 16.0027V21.5634L47.3475 21.8712C49.0354 22.2711 50.5965 22.8054 51.4378 23.4724C52.7472 24.5127 53.2541 26.0148 53.2541 27.9786C53.2576 29.9955 52.3318 31.6692 50.783 33.0032Z" fill="#B4B4B4"/>
</svg>
