<svg width="64" height="64" viewBox="0 0 64 64" fill="none" xmlns="http://www.w3.org/2000/svg">
<path d="M30.7184 63.7562L1.04213 47.5737C0.722062 47.3988 0.45587 47.1394 0.272392 46.8239C0.0889146 46.5083 -0.00488095 46.1486 0.00119218 45.7835C0.00726531 45.4184 0.112985 45.0619 0.306856 44.7527C0.500727 44.4434 0.775406 44.1931 1.10112 44.029L6.99255 41.3128L11.263 43.6437L6.309 45.8873L31.6808 59.722L57.3504 45.8702L52.6662 43.5777L56.9487 41.2658L62.5683 44.0309C62.8931 44.1967 63.1665 44.4484 63.3589 44.7585C63.5512 45.0687 63.6552 45.4255 63.6595 45.7906C63.6639 46.1557 63.5683 46.5151 63.3834 46.8297C63.1985 47.1444 62.9311 47.4022 62.6102 47.5757L32.6233 63.7581C32.3308 63.9168 32.0034 64 31.6708 64C31.3382 64 31.0108 63.9168 30.7184 63.7581V63.7562ZM30.7184 49.7453L1.04213 33.5629C0.721806 33.388 0.455377 33.1287 0.271721 32.813C0.0880653 32.4973 -0.00579726 32.1374 0.000277203 31.7722C0.00635166 31.4069 0.112136 31.0502 0.306185 30.7408C0.500235 30.4315 0.775156 30.1812 1.10112 30.0171L7.36635 26.8646L11.6378 29.1945L6.309 31.8755L31.6808 45.7102L57.3504 31.8574L52.3534 29.3176L56.6359 27.0048L62.5683 30.0211C62.8931 30.1868 63.1665 30.4385 63.3589 30.7487C63.5512 31.0588 63.6552 31.4156 63.6595 31.7807C63.6639 32.1458 63.5683 32.5052 63.3834 32.8198C63.1985 33.1345 62.9311 33.3924 62.6102 33.5658L32.6262 49.7453C32.334 49.9045 32.0065 49.9879 31.6738 49.9879C31.3411 49.9879 31.0136 49.9045 30.7214 49.7453H30.7184ZM31.0622 35.034L1.38592 18.8505C1.06585 18.6756 0.799658 18.4162 0.61618 18.1007C0.432703 17.7851 0.338968 17.4252 0.345041 17.0601C0.351115 16.695 0.456774 16.3385 0.650644 16.0293C0.844515 15.72 1.11919 15.47 1.44491 15.3058L31.427 0.214033C31.7059 0.0732552 32.014 0 32.3264 0C32.6388 0 32.9469 0.0732552 33.2259 0.214033L62.9081 15.3058C63.233 15.4715 63.5065 15.7228 63.6989 16.0329C63.8913 16.343 63.9954 16.6999 63.9998 17.065C64.0043 17.43 63.9089 17.7894 63.724 18.1041C63.5392 18.4188 63.2718 18.677 62.951 18.8505L32.963 35.033C32.6706 35.1917 32.3432 35.2749 32.0106 35.2749C31.678 35.2749 31.3506 35.1917 31.0582 35.033L31.0622 35.034ZM6.65279 17.1642L32.0236 30.9989L57.6942 17.1461L32.3254 4.24303L6.65279 17.1642Z" fill="#FF3D00"/>
</svg>
